<?xml version="1.0" standalone="no"?>
<!DOCTYPE svg PUBLIC "-//W3C//DTD SVG 20010904//EN"
 "http://www.w3.org/TR/2001/REC-SVG-20010904/DTD/svg10.dtd">
<svg version="1.0" xmlns="http://www.w3.org/2000/svg"
 width="421.000000pt" height="421.000000pt" viewBox="0 0 421.000000 421.000000"
 preserveAspectRatio="xMidYMid meet">
<metadata>
Created by potrace 1.14, written by Peter Selinger 2001-2017
</metadata>
<g transform="translate(0.000000,421.000000) scale(0.100000,-0.100000)"
fill="#000000" stroke="none">
<path d="M1470 3870 c-23 -5 -25 -11 -28 -75 -5 -139 -30 -182 -237 -405 -232
-251 -282 -331 -295 -474 -5 -45 -17 -107 -29 -138 -55 -151 -49 -439 14 -638
7 -25 17 -81 20 -125 6 -74 5 -78 -10 -60 -38 50 -79 85 -88 76 -17 -17 -2
-55 28 -71 16 -8 36 -23 43 -33 12 -15 17 -16 30 -5 10 7 14 9 11 5 -4 -5 2
-30 12 -58 25 -64 25 -97 0 -101 -15 -2 -17 -7 -9 -28 10 -24 11 -24 18 -5 6
16 12 6 29 -49 22 -71 26 -98 14 -109 -3 -4 -12 1 -20 11 -13 16 -14 16 -11
-3 2 -14 11 -20 28 -20 20 0 28 -11 56 -82 39 -101 104 -194 187 -268 95 -85
304 -234 377 -269 63 -30 68 -31 200 -30 146 2 244 21 347 68 60 28 210 168
326 305 39 46 72 79 73 75 1 -5 5 -22 8 -37 12 -51 55 -84 142 -108 43 -12 87
-25 96 -30 20 -11 34 6 19 24 -5 7 -27 19 -48 26 -38 13 -112 48 -166 77 -39
21 -50 56 -33 98 8 19 19 37 25 40 17 11 60 99 111 231 l47 120 39 3 c45 4 66
18 40 28 -11 4 -21 1 -27 -7 -7 -12 -11 -12 -23 1 -12 12 -15 44 -17 143 -1
93 -4 127 -13 127 -7 0 -13 6 -13 13 -1 6 -4 65 -7 130 -5 81 -4 117 4 112 13
-8 13 120 -1 220 -21 152 -78 327 -138 425 -15 25 -38 75 -50 112 -12 37 -35
84 -51 106 -69 96 -217 195 -414 278 -61 26 -117 52 -125 58 -7 6 -48 31 -91
56 -78 45 -153 101 -264 197 -67 58 -98 73 -136 63z m779 -789 c39 -10 89 -31
109 -45 75 -52 135 -154 173 -291 12 -44 39 -118 59 -165 40 -88 53 -148 66
-285 4 -44 9 -93 12 -110 2 -16 5 -49 6 -72 0 -31 5 -43 16 -43 13 -1 13 -2 0
-13 -19 -14 -35 -85 -49 -217 -15 -140 -46 -229 -116 -340 -23 -36 -58 -90
-78 -122 -19 -31 -34 -59 -31 -62 2 -3 1 -4 -3 -1 -3 3 -20 -15 -37 -39 -106
-152 -147 -205 -181 -233 -21 -18 -42 -34 -47 -34 -13 -2 -21 -5 -48 -16 -45
-19 -163 -34 -280 -36 -168 -3 -183 3 -305 109 -49 44 -115 99 -145 123 -131
105 -235 235 -290 361 -54 124 -69 193 -85 395 -8 105 -17 201 -20 215 -3 14
-7 36 -10 50 -3 14 -7 42 -9 62 -3 20 -10 56 -16 79 -57 209 -32 440 54 512
83 70 146 90 336 107 185 16 417 54 530 86 155 46 280 53 389 25z"/>
<path d="M2145 2623 c-51 -8 -187 -44 -222 -58 -38 -16 -44 -48 -13 -65 14 -8
45 -3 127 20 137 39 233 47 291 26 44 -16 76 -12 69 8 -2 6 -22 24 -44 40 -34
24 -53 29 -110 31 -37 2 -81 1 -98 -2z"/>
<path d="M1181 2479 c-74 -13 -118 -36 -147 -78 -42 -62 -24 -89 32 -46 50 38
83 46 228 53 107 6 131 10 140 25 8 12 8 22 0 35 -9 14 -28 17 -105 18 -52 1
-118 -2 -148 -7z"/>
<path d="M2140 2371 c-133 -43 -210 -147 -201 -271 1 -8 12 8 25 35 12 28 30
56 38 63 13 11 16 7 22 -27 3 -22 16 -52 29 -67 l23 -26 114 37 c63 20 118 42
122 48 12 18 -2 79 -23 110 -14 19 -16 27 -6 27 17 0 78 -31 112 -58 15 -12
31 -19 36 -16 33 20 -35 99 -109 128 -52 20 -147 29 -182 17z m-12 -135 c-2
-15 -10 -21 -28 -21 -31 0 -40 33 -14 52 22 16 46 -1 42 -31z"/>
<path d="M1170 2213 c-69 -36 -112 -90 -114 -140 -1 -28 3 -38 17 -41 10 -2
17 3 17 13 0 8 20 36 45 60 47 48 74 60 55 26 -13 -25 -13 -84 1 -113 9 -22
16 -23 103 -23 67 0 98 4 110 15 16 13 20 12 32 -4 13 -18 14 -18 20 -1 4 10
8 37 8 61 1 24 3 44 6 44 4 0 25 -18 47 -40 31 -29 42 -35 45 -24 2 9 -26 47
-62 85 -105 111 -220 139 -330 82z m108 -62 c8 -4 12 -19 10 -32 -2 -18 -9
-24 -28 -24 -28 0 -39 27 -20 50 14 17 20 18 38 6z"/>
<path d="M1606 1758 c-10 -33 8 -89 35 -113 25 -24 116 -31 173 -15 55 15 85
46 93 94 6 41 -8 48 -25 11 -16 -35 -81 -65 -141 -65 -81 0 -109 21 -124 95
-3 17 -5 16 -11 -7z"/>
<path d="M2229 1676 c16 -19 44 -21 39 -3 -3 6 -15 14 -28 15 -21 3 -22 2 -11
-12z"/>
<path d="M2160 1629 c-89 -32 -318 -87 -410 -98 -47 -6 -138 -14 -202 -17 -75
-4 -118 -11 -118 -18 0 -29 116 -97 207 -121 66 -17 214 -20 230 -4 5 5 29 12
51 14 49 4 164 62 222 113 52 44 100 108 100 134 0 22 -10 22 -80 -3z m-102
-98 c44 -2 22 -28 -35 -44 -172 -47 -413 -70 -413 -39 0 13 54 30 115 37 33 3
92 13 130 21 39 9 83 17 98 19 15 1 31 5 34 9 3 3 15 4 27 1 12 -2 31 -4 44
-4z"/>
<path d="M1621 1300 c21 -11 57 -22 80 -25 39 -6 37 -4 -26 19 -83 31 -105 33
-54 6z"/>
<path d="M2845 2288 c-29 -23 -64 -90 -65 -122 0 -14 9 -6 28 25 16 24 36 50
46 58 47 39 38 76 -9 39z"/>
<path d="M3432 1808 c-17 -22 -44 -92 -48 -128 -4 -31 -2 -29 14 15 10 28 27
65 36 83 18 35 17 52 -2 30z"/>
<path d="M3108 1743 c-7 -86 -2 -231 7 -222 11 12 14 249 3 249 -5 0 -9 -12
-10 -27z"/>
<path d="M3371 1624 c0 -11 3 -14 6 -6 3 7 2 16 -1 19 -3 4 -6 -2 -5 -13z"/>
<path d="M2515 1109 c17 -57 114 -118 239 -150 25 -6 46 -15 46 -20 0 -13 38
-11 46 3 13 21 -47 56 -170 99 -78 27 -130 51 -145 68 l-24 25 8 -25z"/>
<path d="M2525 890 c9 -31 42 -68 67 -76 14 -4 16 -9 9 -18 -7 -9 -2 -12 21
-14 16 -1 38 -7 48 -12 9 -5 28 -11 41 -13 53 -10 108 -30 103 -38 -3 -5 15
-9 40 -9 25 0 46 3 46 8 0 15 -83 54 -184 86 -121 40 -159 58 -181 88 l-17 23
7 -25z"/>
<path d="M3560 837 c-55 -94 -152 -180 -183 -160 -6 3 -7 1 -3 -5 4 -7 1 -12
-6 -12 -7 0 -26 -7 -42 -15 -24 -13 -109 -38 -166 -50 -8 -2 -15 -4 -15 -6 0
-2 -21 -6 -124 -23 -103 -17 -163 -13 -226 14 -26 11 -50 18 -53 15 -3 -2 -35
12 -72 32 -46 24 -75 48 -89 72 -17 28 -21 30 -16 11 3 -14 11 -35 17 -47 16
-33 116 -81 225 -109 83 -22 111 -25 188 -20 292 20 479 114 570 286 20 40 35
73 33 75 -1 1 -19 -24 -38 -58z"/>
</g>
</svg>
